<svg width="1073" height="956" viewBox="0 0 1073 956" fill="none" xmlns="http://www.w3.org/2000/svg">
<g opacity="0.15">
<path d="M1320.92 525.988C1320.92 168.543 1018.97 -135.077 660.985 -133.997C303.001 -132.918 1 167.644 1 525.988C1 884.333 303.155 1184.89 660.985 1185.92C1018.82 1186.95 1320.92 883.459 1320.92 525.988Z" stroke="url(#paint0_linear_1304_39909)" stroke-width="2" stroke-miterlimit="10"/>
<path d="M660.83 1135.23C330.401 1134.1 51.6367 856.907 51.6367 526.04C51.6367 195.173 330.452 -82.0483 660.83 -83.1536C990.412 -84.2589 1270.2 197.024 1270.2 526.04C1270.2 855.056 990.412 1136.34 660.83 1135.23Z" stroke="url(#paint1_linear_1304_39909)" stroke-width="2" stroke-miterlimit="10"/>
<path d="M1219.44 525.989C1219.44 224.039 961.059 -30.5881 660.318 -32.4645C353.819 -34.3667 101.941 223.705 101.941 525.989C101.941 828.272 353.844 1086.34 660.395 1084.47C961.059 1082.57 1219.44 827.964 1219.44 525.989Z" stroke="url(#paint2_linear_1304_39909)" stroke-width="2" stroke-miterlimit="10"/>
<path d="M659.853 1033.68C381.68 1035.35 152.166 800.975 152.166 525.989C152.166 251.004 381.68 16.6569 659.853 18.3019C932.474 19.947 1168.8 251.903 1168.8 525.989C1168.8 800.075 932.474 1032.06 659.853 1033.68Z" stroke="url(#paint3_linear_1304_39909)" stroke-width="2" stroke-miterlimit="10"/>
<path d="M1117.86 525.988C1117.86 277.915 906.617 69.0673 659.212 69.093C409.263 69.093 202.291 276.193 202.291 525.988C202.291 775.783 409.314 982.858 659.263 982.858C906.668 982.858 1117.86 774.087 1117.86 525.988Z" stroke="url(#paint4_linear_1304_39909)" stroke-width="2" stroke-miterlimit="10"/>
<path d="M658.776 932.144C436.613 932.144 252.646 748.023 252.646 526.015C252.646 304.006 436.638 119.886 658.776 119.886C878.342 119.886 1067.14 305.754 1067.14 526.015C1067.14 746.276 878.342 932.144 658.776 932.144Z" stroke="url(#paint5_linear_1304_39909)" stroke-width="2" stroke-miterlimit="10"/>
<path d="M1016.37 525.989C1016.37 331.021 852.713 170.626 658.465 170.626C466.505 170.6 303.025 333.977 303.025 525.989C303.025 718.001 466.505 881.378 658.465 881.378C852.713 881.378 1016.37 720.957 1016.37 525.989Z" stroke="url(#paint6_linear_1304_39909)" stroke-width="2" stroke-miterlimit="10"/>
<path d="M662.089 830.611C506.295 829.737 357.467 678.364 357.467 525.989C357.467 373.613 506.295 222.266 662.089 221.392C702.423 220.868 742.458 228.359 779.873 243.432C817.288 258.504 851.337 280.857 880.044 309.193C908.75 337.53 931.544 371.285 947.101 408.501C962.658 445.717 970.669 485.652 970.669 525.989C970.669 566.325 962.658 606.26 947.101 643.476C931.544 680.692 908.75 714.447 880.044 742.784C851.337 771.12 817.288 793.473 779.873 808.545C742.458 823.618 702.423 831.109 662.089 830.585V830.611Z" stroke="url(#paint7_linear_1304_39909)" stroke-width="2" stroke-miterlimit="10"/>
<path d="M943.066 525.989C943.066 388.393 827.396 273.932 686.999 272.158C554.57 270.487 433.168 407.466 433.168 525.989C433.168 644.512 554.57 781.516 686.999 779.845C827.396 778.072 943.066 663.61 943.066 525.989Z" stroke="url(#paint8_linear_1304_39909)" stroke-width="2" stroke-miterlimit="10"/>
<path d="M727.483 729.079C619.653 729.079 524.418 628.678 524.418 526.015C524.418 423.351 619.653 322.95 727.483 322.95C840.582 322.95 932.269 414.252 932.269 526.015C932.269 637.777 840.505 729.028 727.483 729.079Z" stroke="url(#paint9_linear_1304_39909)" stroke-width="2" stroke-miterlimit="10"/>
<path d="M928.234 525.989C928.234 442.887 856.005 375.618 774.805 373.69C691.445 371.711 622.48 445.071 622.48 525.989C622.48 606.906 691.445 680.215 774.805 678.313C856.005 676.385 928.234 609.117 928.234 525.989Z" stroke="url(#paint10_linear_1304_39909)" stroke-width="2" stroke-miterlimit="10"/>
<path d="M819.683 627.547C764.033 627.752 718.15 580.328 718.15 525.989C718.15 471.65 764.033 424.251 819.683 424.456C874.356 424.662 921.806 475.711 921.806 525.989C921.806 576.266 874.459 627.341 819.683 627.547Z" stroke="url(#paint11_linear_1304_39909)" stroke-width="2" stroke-miterlimit="10"/>
<path d="M660.984 1186C660.753 1078.12 647.207 963.246 658.414 856.007C670.777 737.731 800.041 678.665 849.855 577.031" stroke="url(#paint12_linear_1304_39909)" stroke-width="2" stroke-miterlimit="10"/>
<path d="M990.516 1097.58C957.597 1041.87 924.807 986.08 892.145 930.216C870.065 892.507 841.225 854.079 828.733 811.796C803.016 724.721 870.323 652.767 872.93 572.138" stroke="url(#paint13_linear_1304_39909)" stroke-width="2" stroke-miterlimit="10"/>
<path d="M1232.11 856.007C1140.65 803.725 1033.7 757.251 951.444 690.985C903.432 652.281 914.958 600.862 892.344 557.458" stroke="url(#paint14_linear_1304_39909)" stroke-width="2" stroke-miterlimit="10"/>
<path d="M1320.92 525.989H904.959" stroke="url(#paint15_linear_1304_39909)" stroke-width="2" stroke-miterlimit="10"/>
<path d="M1232.11 195.996C1140.65 248.253 1033.7 294.752 951.444 360.993C903.456 399.698 914.947 451.074 892.377 494.459" stroke="url(#paint16_linear_1304_39909)" stroke-width="2" stroke-miterlimit="10"/>
<path d="M990.516 -45.5739C957.597 10.1532 924.807 65.9317 892.145 121.762C870.065 159.496 841.225 197.924 828.733 240.207C803.014 327.266 870.332 399.239 872.93 479.866" stroke="url(#paint17_linear_1304_39909)" stroke-width="2" stroke-miterlimit="10"/>
<path d="M660.986 -133.997C660.754 -26.9895 645.846 89.7341 658.415 195.996C672.461 314.651 801.124 373.435 850.32 475.671" stroke="url(#paint18_linear_1304_39909)" stroke-width="2" stroke-miterlimit="10"/>
<path d="M330.582 -45.5739C383.379 47.4246 430.186 157.953 499.048 240.207C587.459 346.071 728.983 390.773 827.369 483.151" stroke="url(#paint19_linear_1304_39909)" stroke-width="2" stroke-miterlimit="10"/>
<path d="M89.0371 195.996C184.015 251.363 278.273 315.085 378.237 360.993C516.225 424.415 670.081 445.741 810.591 501.413" stroke="url(#paint20_linear_1304_39909)" stroke-width="2" stroke-miterlimit="10"/>
<path d="M1 525.989H802.202" stroke="url(#paint21_linear_1304_39909)" stroke-width="2" stroke-miterlimit="10"/>
<path d="M89.0371 856.007C184.015 800.64 278.273 736.919 378.237 690.985C515.996 627.691 669.571 606.332 809.892 550.849" stroke="url(#paint22_linear_1304_39909)" stroke-width="2" stroke-miterlimit="10"/>
<path d="M330.582 1097.58C383.379 1004.58 430.186 894.049 499.048 811.795C587.25 706.182 728.313 661.442 826.67 569.49" stroke="url(#paint23_linear_1304_39909)" stroke-width="2" stroke-miterlimit="10"/>
<path d="M904.329 525.989C904.329 501.03 880.707 475.583 853.409 475.223C840.139 475.521 827.514 481.003 818.235 490.493C808.955 499.983 803.76 512.729 803.76 526.002C803.76 539.275 808.955 552.021 818.235 561.511C827.514 571.001 840.139 576.482 853.409 576.781C880.707 576.421 904.329 551.025 904.329 525.989Z" stroke="url(#paint24_linear_1304_39909)" stroke-width="2" stroke-miterlimit="10"/>
</g>
<defs>
<linearGradient id="paint0_linear_1304_39909" x1="36.9978" y1="1185.93" x2="1576.08" y2="732.943" gradientUnits="userSpaceOnUse">
<stop stop-color="#85FFC4"/>
<stop offset="0.902469" stop-color="#5CC6FF"/>
</linearGradient>
<linearGradient id="paint1_linear_1304_39909" x1="84.8703" y1="1135.24" x2="1505.74" y2="716.986" gradientUnits="userSpaceOnUse">
<stop stop-color="#85FFC4"/>
<stop offset="0.902469" stop-color="#5CC6FF"/>
</linearGradient>
<linearGradient id="paint2_linear_1304_39909" x1="132.419" y1="1084.48" x2="1435.36" y2="700.806" gradientUnits="userSpaceOnUse">
<stop stop-color="#85FFC4"/>
<stop offset="0.902469" stop-color="#5CC6FF"/>
</linearGradient>
<linearGradient id="paint3_linear_1304_39909" x1="179.892" y1="1033.69" x2="1365.1" y2="684.427" gradientUnits="userSpaceOnUse">
<stop stop-color="#85FFC4"/>
<stop offset="0.902469" stop-color="#5CC6FF"/>
</linearGradient>
<linearGradient id="paint4_linear_1304_39909" x1="227.261" y1="982.858" x2="1294.51" y2="668.125" gradientUnits="userSpaceOnUse">
<stop stop-color="#85FFC4"/>
<stop offset="0.902469" stop-color="#5CC6FF"/>
</linearGradient>
<linearGradient id="paint5_linear_1304_39909" x1="274.86" y1="932.144" x2="1224.18" y2="651.97" gradientUnits="userSpaceOnUse">
<stop stop-color="#85FFC4"/>
<stop offset="0.902469" stop-color="#5CC6FF"/>
</linearGradient>
<linearGradient id="paint6_linear_1304_39909" x1="322.48" y1="881.377" x2="1153.79" y2="635.812" gradientUnits="userSpaceOnUse">
<stop stop-color="#85FFC4"/>
<stop offset="0.902469" stop-color="#5CC6FF"/>
</linearGradient>
<linearGradient id="paint7_linear_1304_39909" x1="374.19" y1="830.611" x2="1088.47" y2="619.019" gradientUnits="userSpaceOnUse">
<stop stop-color="#85FFC4"/>
<stop offset="0.902469" stop-color="#5CC6FF"/>
</linearGradient>
<linearGradient id="paint8_linear_1304_39909" x1="447.074" y1="779.86" x2="1041.23" y2="604.237" gradientUnits="userSpaceOnUse">
<stop stop-color="#85FFC4"/>
<stop offset="0.902469" stop-color="#5CC6FF"/>
</linearGradient>
<linearGradient id="paint9_linear_1304_39909" x1="535.541" y1="729.079" x2="1010.79" y2="588.61" gradientUnits="userSpaceOnUse">
<stop stop-color="#85FFC4"/>
<stop offset="0.902469" stop-color="#5CC6FF"/>
</linearGradient>
<linearGradient id="paint10_linear_1304_39909" x1="630.819" y1="678.349" x2="987.143" y2="573.112" gradientUnits="userSpaceOnUse">
<stop stop-color="#85FFC4"/>
<stop offset="0.902469" stop-color="#5CC6FF"/>
</linearGradient>
<linearGradient id="paint11_linear_1304_39909" x1="723.705" y1="627.547" x2="961.07" y2="557.491" gradientUnits="userSpaceOnUse">
<stop stop-color="#85FFC4"/>
<stop offset="0.902469" stop-color="#5CC6FF"/>
</linearGradient>
<linearGradient id="paint12_linear_1304_39909" x1="659.323" y1="1186" x2="905.301" y2="1162.71" gradientUnits="userSpaceOnUse">
<stop stop-color="#85FFC4"/>
<stop offset="0.902469" stop-color="#5CC6FF"/>
</linearGradient>
<linearGradient id="paint13_linear_1304_39909" x1="827.458" y1="1097.58" x2="1038" y2="1077.81" gradientUnits="userSpaceOnUse">
<stop stop-color="#85FFC4"/>
<stop offset="0.902469" stop-color="#5CC6FF"/>
</linearGradient>
<linearGradient id="paint14_linear_1304_39909" x1="901.61" y1="856.007" x2="1288.68" y2="726.355" gradientUnits="userSpaceOnUse">
<stop stop-color="#85FFC4"/>
<stop offset="0.902469" stop-color="#5CC6FF"/>
</linearGradient>
<linearGradient id="paint15_linear_1304_39909" x1="916.303" y1="526.989" x2="916.338" y2="522.684" gradientUnits="userSpaceOnUse">
<stop stop-color="#85FFC4"/>
<stop offset="0.902469" stop-color="#5CC6FF"/>
</linearGradient>
<linearGradient id="paint16_linear_1304_39909" x1="901.642" y1="494.459" x2="1288.66" y2="364.799" gradientUnits="userSpaceOnUse">
<stop stop-color="#85FFC4"/>
<stop offset="0.902469" stop-color="#5CC6FF"/>
</linearGradient>
<linearGradient id="paint17_linear_1304_39909" x1="827.458" y1="479.866" x2="1038" y2="460.097" gradientUnits="userSpaceOnUse">
<stop stop-color="#85FFC4"/>
<stop offset="0.902469" stop-color="#5CC6FF"/>
</linearGradient>
<linearGradient id="paint18_linear_1304_39909" x1="658.754" y1="475.671" x2="906.048" y2="452.16" gradientUnits="userSpaceOnUse">
<stop stop-color="#85FFC4"/>
<stop offset="0.902469" stop-color="#5CC6FF"/>
</linearGradient>
<linearGradient id="paint19_linear_1304_39909" x1="344.131" y1="483.151" x2="928.866" y2="321.447" gradientUnits="userSpaceOnUse">
<stop stop-color="#85FFC4"/>
<stop offset="0.902469" stop-color="#5CC6FF"/>
</linearGradient>
<linearGradient id="paint20_linear_1304_39909" x1="108.716" y1="501.413" x2="724.991" y2="72.8913" gradientUnits="userSpaceOnUse">
<stop stop-color="#85FFC4"/>
<stop offset="0.902469" stop-color="#5CC6FF"/>
</linearGradient>
<linearGradient id="paint21_linear_1304_39909" x1="22.851" y1="526.989" x2="22.8692" y2="522.684" gradientUnits="userSpaceOnUse">
<stop stop-color="#85FFC4"/>
<stop offset="0.902469" stop-color="#5CC6FF"/>
</linearGradient>
<linearGradient id="paint22_linear_1304_39909" x1="108.697" y1="856.007" x2="724.423" y2="427.918" gradientUnits="userSpaceOnUse">
<stop stop-color="#85FFC4"/>
<stop offset="0.902469" stop-color="#5CC6FF"/>
</linearGradient>
<linearGradient id="paint23_linear_1304_39909" x1="344.112" y1="1097.58" x2="928.04" y2="936.128" gradientUnits="userSpaceOnUse">
<stop stop-color="#85FFC4"/>
<stop offset="0.902469" stop-color="#5CC6FF"/>
</linearGradient>
<linearGradient id="paint24_linear_1304_39909" x1="806.503" y1="576.781" x2="923.952" y2="542.549" gradientUnits="userSpaceOnUse">
<stop stop-color="#85FFC4"/>
<stop offset="0.902469" stop-color="#5CC6FF"/>
</linearGradient>
</defs>
</svg>
